# xmcd
#
# Track frame offsets:
#	150
#	24725
#	43379
#	58315
#	77798
#	89859
#	117693
#	134097
#	154632
#	167639
#	189566
#	209299
#	232912
#
# Disc length: 3348 seconds
# Revision: 0
# Processed by: cddbd v1.5.2PL0 Copyright (c) Steve Scherf et al.
# Submitted via: dBpowerAMP V12.0
#
DISCID=c30d120d
DTITLE=Steve Morrison and Alan Glen - Blues From South Of the River
DYEAR=2012
DGENRE=Blues
TTITLE0=Easy Rider
TTITLE1=High Healed Sneakers
TTITLE2=Let's Work Together
TTITLE3=Sumertime
TTITLE4=Blue Suede Shoes
TTITLE5=On The Road Again
TTITLE6=Climbing On Top Of The World
TTITLE7=Down By The Riverside
TTITLE8=Pick A Bale Of Cotton
TTITLE9=You Gotta Move
TTITLE10=Hip Shake
TTITLE11=Something's Over
TTITLE12=I Want You
EXTD=
EXTT0=
EXTT1=
EXTT2=
EXTT3=
EXTT4=
EXTT5=
EXTT6=
EXTT7=
EXTT8=
EXTT9=
EXTT10=
EXTT11=
EXTT12=
PLAYORDER=
